IMDB Rating:7.8/10.0

 GENRE: Drama | Thriller


 General 
 Unique ID : 246841729277279866813834601019830481919 (0xB9B3FCE0105CFC4BAE4BAF461500B3FF) 
 Complete name : The Machinist (2004)
 Format : Matroska 
 Format version : Version 4 / Version 2 
 File size : 862 MiB 
 Duration : 1h 37mn 
 Overall bit rate : 1 233 Kbps 
 Movie name : The Machinist (2004) 720p BRRip X264 Hindi R@J@T 
 Encoded date : UTC 2013-03-05 14:07:45 
 Writing application : mkvmerge v6.0.0 ('Coming Up For Air') built on Jan 20 2013 09:52:00 
 Writing library : libebml v1.3.0 + libmatroska v1.4.0 

 Video 
 ID : 1 
 Format : AVC 
 Format/Info : Advanced Video Codec 
 Format profile : High@L3.1 
 Format settings, CABAC : Yes 
 Format settings, ReFrames : 5 frames 
 Codec ID : V_MPEG4/ISO/AVC 
 Duration : 1h 37mn 
 Bit rate : 827 Kbps 
 Width : 1 280 pixels 
 Height : 538 pixels 
 Display aspect ratio : 2.40:1 
 Frame rate mode : Constant 
 Frame rate : 25.000 fps 
 Original frame rate : 23.976 fps 
 Color space : YUV 
 Chroma subsampling : 4:2:0 
 Bit depth : 8 bits 
 Scan type : Progressive 
 Bits/(Pixel*Frame) : 0.048 
 Stream size : 577 MiB (67%) 
 Title : R@J@T 
 Writing library : x264 core 116 r2074 2641b9e 
 Encoding settings : cabac=1 / ref=5 / deblock=1:-2:-1 / analyse=0x3:0x113 / me=umh / subme=8 / psy=1 / psy_rd=1.00:0.00 / mixed_ref=1 / me_range=16 / chroma_me=1 / trellis=1 / 8x8dct=1 / cqm=0 / deadzone=21,11 / fast_pskip=1 / chroma_qp_offset=-2 / threads=12 / sliced_threads=0 / nr=0 / decimate=1 / interlaced=0 / bluray_compat=0 / constrained_intra=0 / bframes=3 / b_pyramid=2 / b_adapt=2 / b_bias=0 / direct=3 / weightb=1 / open_gop=0 / weightp=2 / keyint=250 / keyint_min=23 / scenecut=40 / intra_refresh=0 / rc_lookahead=50 / rc=2pass / mbtree=1 / bitrate=827 / ratetol=1.0 / qcomp=0.60 / qpmin=10 / qpmax=51 / qpstep=4 / cplxblur=20.0 / qblur=0.5 / ip_ratio=1.40 / aq=1:1.00 
 Language : English 
 Default : Yes 
 Forced : No 

 Audio 
 ID : 2 
 Format : AC-3 
 Format/Info : Audio Coding 3 
 Mode extension : CM (complete main) 
 Format settings, Endianness : Big 
 Codec ID : A_AC3 
 Duration : 1h 37mn 
 Bit rate mode : Constant 
 Bit rate : 384 Kbps 
 Channel(s) : 6 channels 
 Channel positions : Front: L C R, Side: L R, LFE 
 Sampling rate : 48.0 KHz 
 Bit depth : 16 bits 
 Compression mode : Lossy 
 Delay relative to video : 200ms 
 Stream size : 268 MiB (31%) 
 Title : R@J@T 
 Language : Hindi 
 Default : No 
 Forced : No 





 SPECIAL NOTE: CHECK SCREEN SHOTS (INSIDE THE TORRENT) AND SAMPLE BEFORE DOWNLOAD FOR SATISFACTION.


 IF YOU LIKE MY WORK PLEASE SEED THE TORRENT



 THANKS 
 R@J@T